# xmcd
# Track frame offsets:
# 150
# 15430
# 27822
# 42082
# 56932
# 74150
# 90537
# 103970
# 118400
# 130592
# 142610
# 156622
#
# Disc length: 2387 seconds
# Revision: 0
# Processed by: cddbd v1.4PL0 Copyright (c) Steve Scherf et al.
# Submitted via: VisiTrax 2.9.5.180 - For more info visit www.synapsa.com
#
DISCID=a809510c
DTITLE=W B Stokley - Tradition
DYEAR=2000
DGENRE=
TTITLE0=Honky tonk blues
TTITLE1=Thanks a lot
TTITLE2=Muddy water
TTITLE3=Cold, cold heart
TTITLE4=I can't stop loving you
TTITLE5=It takes a fool
TTITLE6=Folsom prison blues
TTITLE7=Please help me I'm falling
TTITLE8=Pride
TTITLE9=I don't hurt anymore
TTITLE10=Blue ribbons
TTITLE11=Long black veil
EXTD=
EXTT0=
EXTT1=
EXTT2=
EXTT3=
EXTT4=
EXTT5=
EXTT6=
EXTT7=
EXTT8=
EXTT9=
EXTT10=
EXTT11=
PLAYORDER=
